<?xml version="1.0" encoding="UTF-8"?>

<svg xmlns:ev="http://www.w3.org/2001/xml-events" xmlns:xlink="http://www.w3.org/1999/xlink" xmlns="http://www.w3.org/2000/svg" width="100%" height="100%" viewBox="0 0 1172 870">
	<g id="l_Background"><?gdlayer visible=1?>
		<!--<rect id="rect_Background" fill="#D0D0D0" width="1080" height="1080"/>-->
	</g>

	<g id="room" transform="matrix(1 0 0 1 200 30)">
		<rect x="0" y="0" height="800" width="800" stroke-width="3" stroke="black"  fill="white"/>

		<g id="bed" transform="matrix(1 0 0 1 0 0)">
			<line id="line_down" transform="" x1="0" y1="425" x2="250" y2="425" stroke-width="3" stroke="black"/>
			<line id="line_right" transform="" x1="250" y1="0" x2="250" y2="425" stroke-width="3" stroke="black"/>

			<g id="bed_Pillow" transform="matrix(1 0 0 1 0 0)">
				<line id="line" transform="" x1="0" y1="70" x2="250" y2="70" stroke-width="3" stroke="black"/>
			</g>
		</g>
		<g id="bedside_table" transform="matrix(1 0 0 1 280 0)">
			<line id="line_left" transform="" x1="0" y1="0" x2="0" y2="80" stroke-width="3" stroke="black"/>
			<line id="line_down" transform="" x1="0" y1="80" x2="120" y2="80" stroke-width="3" stroke="black"/>
			<line id="line_right" transform="" x1="120" y1="0" x2="120" y2="80" stroke-width="3" stroke="black"/>

			<ellipse id="lamp" cx="60" cy="40" rx="15" ry="15" stroke-width="1.5" stroke="black" fill="white"/>
		</g>

		<g id="door">
			<line id="line_left" transform="" x1="620" y1="-10" x2="620" y2="10" stroke-width="3" stroke="black"/>
			<line id="line_right" transform="" x1="790" y1="-10" x2="790" y2="10" stroke-width="3" stroke="black"/>
		</g>
	</g>
</svg>
