<?xml version="1.0" encoding="UTF-8"?>

<svg xmlns:ev="http://www.w3.org/2001/xml-events" xmlns:xlink="http://www.w3.org/1999/xlink" xmlns="http://www.w3.org/2000/svg" width="100%" height="100%" viewBox="0 0 1920 1440">
	<g id="l_Background"><?gdlayer visible=1?>
		<!--<rect id="rect_Background" fill="#D0D0D0" width="1080" height="1080"/>-->
	</g>

	<g id="bedroom_0001" transform="matrix(2.15 0 0 2.15 500 -730)">
		<rect id="contour" x="0" y="350" height="650" width="450" stroke-width="2" stroke="black"  fill="#FFEEE2"/>

		<rect id="table1" x="75" y="350" height="50" width="75" stroke-width="2" stroke="black"  fill="#FFEEE2"/>

		<g id="bedroom_0001_dinningroom_door">
			<line id="door" x1="440" y1="360" x2="460" y2="360" stroke-width="1" stroke="black"/>
			<line id="door" x1="440" y1="440" x2="460" y2="440" stroke-width="1" stroke="black"/>
			<text id="bedroom_Door" x="460" y="410" font-size="20" font-family="arial" fill="black">04</text>
		</g>

		<rect id="table2" x="400" y="600" height="120" width="50" stroke-width="2" stroke="black"  fill="#FFEEE2"/>

		<g id="bedroom_0001_table3">
			<rect id="table3" x="180" y="945" height="55" width="270" stroke-width="2" stroke="black"  fill="#FFEEE2"/>
			<g id="bedroom_0001_laptop">
				<rect id="laptop" x="250" y="950" height="20" width="30" stroke-width="2" stroke="black"  fill="#FFEEE2"/>
				<text id="laptop" x="285" y="975" font-size="20" font-family="arial" fill="black">12</text>
			</g>
		</g>

		<rect id="table4" x="0" y="760" height="60" width="50" stroke-width="2" stroke="black"  fill="#FFEEE2"/>
		<text id="light" x="10" y="795" font-size="20" font-family="arial" fill="black">10</text>

		<g id="bed">
			<rect id="bed" x="0" y="620" height="140" width="220" stroke-width="2" stroke="black"  fill="#FFEEE2"/>
			<line id="bed" x1="60" y1="620" x2="40" y2="760" stroke-width="2" stroke="black"/>
		</g>

		<rect id="window" x="-3" y="600" height="180" width="3" fill="cyan" stroke-width="0.75" stroke="black"/>

		<rect id="table5" x="0" y="560" height="60" width="50" stroke-width="2" stroke="black"  fill="#FFEEE2"/>
		<text id="light2" x="10" y="595" font-size="20" font-family="arial" fill="black">11</text>

		<text id="Main_light" x="225" y="675" font-size="20" font-family="arial" fill="black">09</text>
	</g>
</svg>
