<?xml version="1.0" encoding="UTF-8"?>

<svg xmlns:ev="http://www.w3.org/2001/xml-events" xmlns:xlink="http://www.w3.org/1999/xlink" xmlns="http://www.w3.org/2000/svg" width="100%" height="100%" viewBox="0 0 1920 1440">
	<g id="l_Background"><?gdlayer visible=1?>
		<!--<rect id="rect_Background" fill="#D0D0D0" width="1080" height="1080"/>-->
	</g>

	<g id="dinningroom_0001" transform="matrix(1.4 0 0 1.4 450 20)">
		<rect x="0" y="0" height="1000" width="470" fill="#FFEEE2"/>
		<rect x="425" y="500" height="500" width="325" fill="#FFEEE2"/>

		<line x1="0" y1="0" x2="470" y2="0" stroke-width="3" stroke="black"/>
		<line x1="470" y1="0" x2="470" y2="500" stroke-width="3" stroke="black"/>
		<line x1="470" y1="500" x2="750" y2="500" stroke-width="3" stroke="black"/>
		<line x1="750" y1="500" x2="750" y2="1000" stroke-width="3" stroke="black"/>
		<line x1="0" y1="1000" x2="750" y2="1000" stroke-width="3" stroke="black"/>
		<line x1="0" y1="0" x2="0" y2="1000" stroke-width="3" stroke="black"/>

		<g id="dinningroom_0001_exit_door">
			<line id="exit_Door" x1="375" y1="-10" x2="375" y2="10" stroke-width="2" stroke="black"/>
			<line id="exit_Door" x1="455" y1="-10" x2="455" y2="10" stroke-width="2" stroke="black"/>
			<text id="exit_Door" x="400" y="30" font-size="28" font-family="arial" fill="black">02</text>
		</g>

		<g id="dinningroom_0001_bathroom_door">
			<line id="bathroom_Door" x1="-10" y1="135" x2="10" y2="135" stroke-width="2" stroke="black"/>
			<line id="bathroom_Door" x1="-10" y1="215" x2="10" y2="215" stroke-width="2" stroke="black"/>
			<text id="bathroom_Door" x="10" y="185" font-size="28" font-family="arial" fill="black">05</text>
		</g>

		<g id="dinningroom_0001_bedroom_door">
			<line id="bedroom_Door" x1="-10" y1="360" x2="10" y2="360" stroke-width="2" stroke="black"/>
			<line id="bedroom_Door" x1="-10" y1="440" x2="10" y2="440" stroke-width="2" stroke="black"/>
			<text id="bedroom_Door" x="10" y="410" font-size="28" font-family="arial" fill="black">04</text>
		</g>

		<g id="dinningroom_0001_kitchen_door">
			<line id="kitchen_Door" x1="500" y1="490" x2="500" y2="510" stroke-width="2" stroke="black"/>
			<line id="kitchen_Door" x1="580" y1="490" x2="580" y2="510" stroke-width="2" stroke="black"/>
			<text id="kitchen_Door" x="525" y="530" font-size="28" font-family="arial" fill="black">03</text>
		</g>

		<g id="dinningroom_0001_windows">
			<rect id="window1" x="550" y="1000" height="3" width="80" fill="cyan" stroke-width="1" stroke="black"/>
			<rect id="window2" x="350" y="1000" height="3" width="80" fill="cyan" stroke-width="1" stroke="black"/>
			<rect id="window3" x="50" y="1000" height="3" width="200" fill="cyan" stroke-width="1" stroke="black"/>

			<!--Nuevo-->
			<g id="general_0001_forniture" transform="matrix(1 0 0 1 -450 0)">
				<rect id="shelf1" x="490" y="0" height="40" width="220" stroke-width="3" stroke="black"  fill="#FFEEE2"/>

				<rect id="shelf2" x="880" y="210" height="190" width="40" stroke-width="3" stroke="black"  fill="#FFEEE2"/>

				<g id="general_0001_table1">
					<rect id="table1" x="935" y="600" height="150" width="150" stroke-width="3" stroke="black"  fill="#FFEEE2"/>
					<rect id="chair1" x="985" y="550" height="50" width="50" stroke-width="2" stroke="black"  fill="#FFEEE2"/>
					<rect id="chair2" x="1085" y="650" height="50" width="50" stroke-width="2" stroke="black"  fill="#FFEEE2"/>
					<rect id="chair3" x="985" y="750" height="50" width="50" stroke-width="2" stroke="black"  fill="#FFEEE2"/>
					<rect id="chair4" x="885" y="650" height="50" width="50" stroke-width="2" stroke="black"  fill="#FFEEE2"/>
				</g>

				<g id="general_0001_armchair">
					<rect id="armchair" x="625" y="755" height="105" width="110" stroke-width="2" stroke="black"  fill="#FFEEE2"/>
					<line id="pillow" x1="715" y1="755" x2="715" y2="835" stroke-width="2" stroke="black"/>
					<line id="pillow" x1="645" y1="835" x2="715" y2="835" stroke-width="2" stroke="black"/>
					<line id="pillow" x1="645" y1="755" x2="645" y2="835" stroke-width="2" stroke="black"/>
				</g>

				<ellipse id="table2" cx="525" cy="820" rx="35" ry="35" stroke-width="3" stroke="black"  fill="#FFEEE2"/>

				<rect id="table3" x="610" y="590" height="100" width="100" stroke-width="3" stroke="black"  fill="#FFEEE2"/>

				<g id="general_0001_sofa">
					<rect id="sofa" x="450" y="570" height="175" width="110" stroke-width="2" stroke="black"  fill="#FFEEE2"/>
					<line id="pillow" x1="470" y1="590" x2="560" y2="590" stroke-width="2" stroke="black"/>
					<line id="pillow" x1="470" y1="590" x2="470" y2="745" stroke-width="2" stroke="black"/>
				</g>
			</g>

			<text id="Main_light" x="300" y="550" font-size="28" font-family="arial" fill="black">01</text>

		</g>
	</g>
</svg>
