<?xml version="1.0" encoding="UTF-8"?>

<svg xmlns:ev="http://www.w3.org/2001/xml-events" xmlns:xlink="http://www.w3.org/1999/xlink" xmlns="http://www.w3.org/2000/svg" width="100%" height="100%" viewBox="0 0 1920 1440">
	<g id="l_Background"><?gdlayer visible=1?>
		<!--<rect id="rect_Background" fill="#D0D0D0" width="1080" height="1080"/>-->
	</g>

	<g id="dinningroom_0001" transform="matrix(1.4 0 0 1.4 450 20)">
		<rect x="0" y="0" height="1000" width="470" fill="#FFEEE2"/>
		<rect x="425" y="500" height="500" width="325" fill="#FFEEE2"/>

		<line x1="0" y1="0" x2="470" y2="0" stroke-width="3" stroke="black"/>
		<line x1="470" y1="0" x2="470" y2="500" stroke-width="3" stroke="black"/>
		<line x1="470" y1="500" x2="750" y2="500" stroke-width="3" stroke="black"/>
		<line x1="750" y1="500" x2="750" y2="1000" stroke-width="3" stroke="black"/>
		<line x1="0" y1="1000" x2="750" y2="1000" stroke-width="3" stroke="black"/>
		<line x1="0" y1="0" x2="0" y2="1000" stroke-width="3" stroke="black"/>

		<g id="dinningroom_0001_exit_door">
			<line id="exit_Door" x1="375" y1="-10" x2="375" y2="10" stroke-width="2" stroke="black"/>
			<line id="exit_Door" x1="455" y1="-10" x2="455" y2="10" stroke-width="2" stroke="black"/>
		</g>

		<g id="dinningroom_0001_bathroom_door">
			<line id="bathroom_Door" x1="-10" y1="135" x2="10" y2="135" stroke-width="2" stroke="black"/>
			<line id="bathroom_Door" x1="-10" y1="215" x2="10" y2="215" stroke-width="2" stroke="black"/>
		</g>

		<g id="dinningroom_0001_bedroom_door">
			<line id="bedroom_Door" x1="-10" y1="360" x2="10" y2="360" stroke-width="2" stroke="black"/>
			<line id="bedroom_Door" x1="-10" y1="440" x2="10" y2="440" stroke-width="2" stroke="black"/>
		</g>

		<g id="dinningroom_0001_kitchen_door">
			<line id="kitchen_Door" x1="500" y1="490" x2="500" y2="510" stroke-width="2" stroke="black"/>
			<line id="kitchen_Door" x1="580" y1="490" x2="580" y2="510" stroke-width="2" stroke="black"/>
		</g>

		<g id="dinningroom_0001_windows">
			<rect id="window1" x="550" y="1000" height="3" width="80" fill="cyan" stroke-width="1" stroke="black"/>
			<rect id="window2" x="350" y="1000" height="3" width="80" fill="cyan" stroke-width="1" stroke="black"/>
			<rect id="window3" x="50" y="1000" height="3" width="200" fill="cyan" stroke-width="1" stroke="black"/>
		</g>
	</g>
</svg>
