<?xml version="1.0" encoding="UTF-8"?>

<svg xmlns:ev="http://www.w3.org/2001/xml-events" xmlns:xlink="http://www.w3.org/1999/xlink" xmlns="http://www.w3.org/2000/svg" width="100%" height="100%" viewBox="0 0 1920 1080">
	<g id="l_Background"><?gdlayer visible=1?>
		<!--<rect id="rect_Background" fill="#D0D0D0" width="1080" height="1080"/>-->
	</g>

	<g id="dinningroom" transform="matrix(1 0 0 1 650 40)">
		<rect x="0" y="0" height="1000" width="425" fill="#FFEEE2"/>
		<rect x="425" y="500" height="500" width="325" fill="#FFEEE2"/>

		<line x1="0" y1="0" x2="425" y2="0" stroke-width="3" stroke="black"/>
		<line x1="425" y1="0" x2="425" y2="500" stroke-width="3" stroke="black"/>
		<line x1="425" y1="500" x2="750" y2="500" stroke-width="3" stroke="black"/>
		<line x1="750" y1="500" x2="750" y2="1000" stroke-width="3" stroke="black"/>
		<line x1="0" y1="1000" x2="750" y2="1000" stroke-width="3" stroke="black"/>
		<line x1="0" y1="0" x2="0" y2="1000" stroke-width="3" stroke="black"/>

		<line id="exit_Door" x1="335" y1="-10" x2="335" y2="10" stroke-width="2" stroke="black"/>
		<line id="exit_Door" x1="415" y1="-10" x2="415" y2="10" stroke-width="2" stroke="black"/>

		<line id="bathroom_Door" x1="-10" y1="135" x2="10" y2="135" stroke-width="2" stroke="black"/>
		<line id="bathroom_Door" x1="-10" y1="215" x2="10" y2="215" stroke-width="2" stroke="black"/>

		<line id="bedroom_Door" x1="-10" y1="360" x2="10" y2="360" stroke-width="2" stroke="black"/>
		<line id="bedroom_Door" x1="-10" y1="440" x2="10" y2="440" stroke-width="2" stroke="black"/>

		<line id="kitchen_Door" x1="450" y1="490" x2="450" y2="510" stroke-width="2" stroke="black"/>
		<line id="kitchen_Door" x1="530" y1="490" x2="530" y2="510" stroke-width="2" stroke="black"/>
	</g>
</svg>
