<?xml version="1.0" encoding="UTF-8"?>

<svg xmlns:ev="http://www.w3.org/2001/xml-events" xmlns:xlink="http://www.w3.org/1999/xlink" xmlns="http://www.w3.org/2000/svg" width="100%" height="100%" viewBox="0 0 1920 1440">
	<g id="l_Background"><?gdlayer visible=1?>
		<!--<rect id="rect_Background" fill="#D0D0D0" width="1080" height="1080"/>-->
	</g>

	<g id="general_0001" transform="matrix(1.4 0 0 1.4 125 20)">
		<rect id="contour" x="0" y="0" height="1000" width="1200" stroke-width="3" stroke="black"  fill="#FFEEE2"/>

		<g id="bathroom_0001" transform="matrix(1 0 0 1 0 0)">
			<rect id="contour" x="0" y="0" height="350" width="450" stroke-width="3" stroke="black"  fill="#FFEEE2"/>

			<rect id="sink" x="75" y="0" height="55" width="150" stroke-width="3" stroke="black"  fill="#FFEEE2"/>

			<g id="bathroom_0001_wc">
				<ellipse id="wc" cx="415" cy="52.5" rx="30" ry="20" stroke-width="3" stroke="black"  fill="#FFEEE2"/>
				<rect id="wc" x="435" y="25" height="55" width="15" stroke-width="3" stroke="black"  fill="#FFEEE2"/>
			</g>

			<g id="bathroom_0001_dinningroom_door">
				<line id="door" x1="440" y1="135" x2="460" y2="135" stroke-width="2" stroke="black"/>
				<line id="door" x1="440" y1="215" x2="460" y2="215" stroke-width="2" stroke="black"/>
			</g>

			<rect id="shower" x="320" y="260" height="90" width="130" stroke-width="3" stroke="black"  fill="#FFEEE2"/>

			<ellipse id="bath" cx="40" cy="257.5" rx="40" ry="90" stroke-width="3" stroke="black"  fill="#FFEEE2"/>

			<rect id="window" x="-3" y="60" height="80" width="3" fill="cyan" stroke-width="1" stroke="black"/>
		</g>

		<g id="bedroom_0001" transform="matrix(1 0 0 1 0 0)">
			<rect id="contour" x="0" y="350" height="650" width="450" stroke-width="3" stroke="black"  fill="#FFEEE2"/>

			<rect id="table1" x="75" y="350" height="50" width="75" stroke-width="3" stroke="black"  fill="#FFEEE2"/>

			<g id="bedroom_0001_dinningroom_door">
				<line id="door" x1="440" y1="360" x2="460" y2="360" stroke-width="2" stroke="black"/>
				<line id="door" x1="440" y1="440" x2="460" y2="440" stroke-width="2" stroke="black"/>
			</g>

			<rect id="table2" x="400" y="600" height="120" width="50" stroke-width="3" stroke="black"  fill="#FFEEE2"/>

			<rect id="table3" x="180" y="945" height="55" width="270" stroke-width="3" stroke="black"  fill="#FFEEE2"/>

			<rect id="table4" x="0" y="760" height="60" width="50" stroke-width="3" stroke="black"  fill="#FFEEE2"/>

			<g id="bed">
				<rect id="bed" x="0" y="620" height="140" width="220" stroke-width="3" stroke="black"  fill="#FFEEE2"/>
				<line id="bed" x1="60" y1="620" x2="40" y2="760" stroke-width="3" stroke="black"/>
			</g>

			<rect id="window" x="-3" y="600" height="180" width="3" fill="cyan" stroke-width="1" stroke="black"/>

			<rect id="table5" x="0" y="560" height="60" width="50" stroke-width="3" stroke="black"  fill="#FFEEE2"/>

		</g>

		<g id="kitchen_0001" transform="matrix(1 0 0 1 0 0)">
			<rect id="contour" x="920" y="0" height="470" width="280" stroke-width="3" stroke="black"  fill="#FFEEE2"/>

			<g id="kitchen_0001_kitchen_countertop">
				<rect id="kitchen_countertop" x="980" y="0" height="60" width="150" stroke-width="3" stroke="black"  fill="#FFEEE2"/>
				<rect id="kitchen_countertop" x="1130" y="0" height="280" width="70" stroke-width="3" stroke="black"  fill="#FFEEE2"/>
			</g>

			<rect id="window" x="1201" y="350" height="80" width="3" fill="cyan" stroke-width="1" stroke="black"/>

			<g id="kitchen_0001_table">
				<rect id="table" x="1070" y="360" height="65" width="65" stroke-width="3" stroke="black"  fill="#FFEEE2"/>
				<rect id="chair1" x="1077.5" y="320" height="40" width="50" stroke-width="2" stroke="black"  fill="#FFEEE2"/>
				<rect id="chair2" x="1136" y="367.5" height="50" width="40" stroke-width="2" stroke="black"  fill="#FFEEE2"/>
			</g>

			<g id="kitchen_0001_dinningroom_door">
				<line id="dinningroom_door" x1="940" y1="460" x2="940" y2="480" stroke-width="2" stroke="black"/>
				<line id="dinningroom_door" x1="1020" y1="460" x2="1020" y2="480" stroke-width="2" stroke="black"/>
			</g>

			<rect id="window" x="1201" y="350" height="80" width="3" fill="cyan" stroke-width="1" stroke="black"/>
		</g>

		<g id="dinningroom_0001" transform="matrix(1 0 0 1 0 0)">
			<rect id="shelf1" x="490" y="0" height="40" width="220" stroke-width="3" stroke="black"  fill="#FFEEE2"/>

			<g id="general__0001_exit_door">
				<line id="exit_Door" x1="820" y1="-10" x2="820" y2="10" stroke-width="2" stroke="black"/>
				<line id="exit_Door" x1="900" y1="-10" x2="900" y2="10" stroke-width="2" stroke="black"/>
			</g>

			<rect id="shelf2" x="880" y="210" height="190" width="40" stroke-width="3" stroke="black"  fill="#FFEEE2"/>

			<g id="general_0001_table1">
				<rect id="table1" x="935" y="600" height="150" width="150" stroke-width="3" stroke="black"  fill="#FFEEE2"/>
				<rect id="chair1" x="985" y="550" height="50" width="50" stroke-width="2" stroke="black"  fill="#FFEEE2"/>
				<rect id="chair2" x="1085" y="650" height="50" width="50" stroke-width="2" stroke="black"  fill="#FFEEE2"/>
				<rect id="chair3" x="985" y="750" height="50" width="50" stroke-width="2" stroke="black"  fill="#FFEEE2"/>
				<rect id="chair4" x="885" y="650" height="50" width="50" stroke-width="2" stroke="black"  fill="#FFEEE2"/>
			</g>

			<g id="general_0001_armchair">
				<rect id="armchair" x="625" y="755" height="105" width="110" stroke-width="2" stroke="black"  fill="#FFEEE2"/>
				<line id="pillow" x1="715" y1="755" x2="715" y2="835" stroke-width="2" stroke="black"/>
				<line id="pillow" x1="645" y1="835" x2="715" y2="835" stroke-width="2" stroke="black"/>
				<line id="pillow" x1="645" y1="755" x2="645" y2="835" stroke-width="2" stroke="black"/>
			</g>

			<ellipse id="table2" cx="525" cy="820" rx="35" ry="35" stroke-width="3" stroke="black"  fill="#FFEEE2"/>

			<rect id="table3" x="610" y="590" height="100" width="100" stroke-width="3" stroke="black"  fill="#FFEEE2"/>

			<g id="general_0001_sofa">
				<rect id="sofa" x="450" y="570" height="175" width="110" stroke-width="2" stroke="black"  fill="#FFEEE2"/>
				<line id="pillow" x1="470" y1="590" x2="560" y2="590" stroke-width="2" stroke="black"/>
				<line id="pillow" x1="470" y1="590" x2="470" y2="745" stroke-width="2" stroke="black"/>
			</g>
			<rect id="window1" x="550" y="1000" height="3" width="200" fill="cyan" stroke-width="1" stroke="black"/>
			<rect id="window2" x="850" y="1000" height="3" width="80" fill="cyan" stroke-width="1" stroke="black"/>
			<rect id="window3" x="1050" y="1000" height="3" width="80" fill="cyan" stroke-width="1" stroke="black"/>
		</g>
	</g>
</svg>
