<?xml version="1.0" encoding="UTF-8"?>

<svg xmlns:ev="http://www.w3.org/2001/xml-events" xmlns:xlink="http://www.w3.org/1999/xlink" xmlns="http://www.w3.org/2000/svg" width="100%" height="100%" viewBox="0 0 1920 1080">
	<g id="l_Background"><?gdlayer visible=1?>
		<!--<rect id="rect_Background" fill="#D0D0D0" width="1080" height="1080"/>-->
	</g>

	<g id="home" transform="matrix(1 0 0 1 400 40)">
		<rect id="contour" x="0" y="0" height="1000" width="1200" stroke-width="3" stroke="black"  fill="white"/>

		<g id="bathroom" transform="matrix(1 0 0 1 0 0)">
			<rect id="contour" x="0" y="0" height="350" width="450" stroke-width="3" stroke="black"  fill="white"/>

			<line id="door" x1="440" y1="135" x2="460" y2="135" stroke-width="2" stroke="black"/>
			<line id="door" x1="440" y1="215" x2="460" y2="215" stroke-width="2" stroke="black"/>
		</g>
		<g id="bedroom" transform="matrix(1 0 0 1 0 0)">
			<rect id="contour" x="0" y="350" height="650" width="450" stroke-width="3" stroke="black"  fill="white"/>

			<line id="door" x1="440" y1="135" x2="460" y2="135" stroke-width="2" stroke="black"/>
			<line id="door" x1="440" y1="215" x2="460" y2="215" stroke-width="2" stroke="black"/>
		</g>
		<g id="kitchen" transform="matrix(1 0 0 1 0 0)">
			<rect id="contour" x="875" y="0" height="500" width="325" stroke-width="3" stroke="black"  fill="white"/>
		</g>
	</g>
</svg>
